<svg  version="1.1" viewBox="0 0 752 752" xmlns="http://www.w3.org/2000/svg"><path d="m362.75 163.04c-16.203 17.199-158.27 170.59-158.27 259.9 0 94.578 76.949 171.53 171.53 171.53s171.53-76.949 171.53-171.53c0-89.312-142.07-242.7-158.27-259.9-6.8711-7.3281-19.641-7.3281-26.508 0zm13.25 394.99c-74.496 0-135.1-60.602-135.1-135.1 0-57.488 87.891-167.65 135.1-220.45 47.227 52.777 135.1 162.9 135.1 220.45 0 74.496-60.602 135.1-135.1 135.1z"/>
  <path d="m327.26 488.18c8.3867 5.543 19.691 3.25 25.242-5.1406l77.359-117.06c5.5508-8.3945 3.2383-19.707-5.1406-25.242-8.4141-5.5664-19.691-3.2734-25.242 5.1406l-77.359 117.06c-5.5469 8.3984-3.2344 19.711 5.1406 25.242z"/>
  <path d="m335.05 391.73c9.332-9.2852 5.8516-24.582-6.0117-29.688-7.0391-2.9297-15.246-0.91406-19.656 4.0195-17.445 15.582 8.1836 43.242 25.668 25.668z"/>
  <path d="m416.84 437.09c-7.082 7.5039-6.9922 18.871 0 25.863 8.1953 7.3203 19.133 6.7656 25.863 0 6.8398-6.8047 7.2148-18.258 0-25.863-6.4336-6.4531-17.438-7.5273-25.863 0z"/></svg>
